<mxfile host="app.diagrams.net" modified="2023-08-26T23:11:11.586Z" agent="Mozilla/5.0 (Windows NT 10.0; Win64; x64) AppleWebKit/537.36 (KHTML, like Gecko) Chrome/116.0.0.0 Safari/537.36" etag="Q8-GnN6SJprHOksiUheM" version="21.6.9" type="github">
  <diagram id="C5RBs43oDa-KdzZeNtuy" name="Page-1">
    <mxGraphModel dx="1674" dy="800" grid="1" gridSize="10" guides="1" tooltips="1" connect="1" arrows="1" fold="1" page="1" pageScale="1" pageWidth="827" pageHeight="1169" math="0" shadow="0">
      <root>
        <mxCell id="WIyWlLk6GJQsqaUBKTNV-0" />
        <mxCell id="WIyWlLk6GJQsqaUBKTNV-1" parent="WIyWlLk6GJQsqaUBKTNV-0" />
        <mxCell id="X8g_dlJJMPmyOJWbWl0t-1" value="1" style="edgeStyle=orthogonalEdgeStyle;rounded=0;orthogonalLoop=1;jettySize=auto;html=1;entryX=0;entryY=0.5;entryDx=0;entryDy=0;" edge="1" parent="WIyWlLk6GJQsqaUBKTNV-1" source="aXrmk4FM_Ra0JbeD8-sf-0" target="aXrmk4FM_Ra0JbeD8-sf-1">
          <mxGeometry relative="1" as="geometry" />
        </mxCell>
        <mxCell id="X8g_dlJJMPmyOJWbWl0t-6" value="0" style="edgeStyle=orthogonalEdgeStyle;rounded=0;orthogonalLoop=1;jettySize=auto;html=1;exitX=0;exitY=1;exitDx=0;exitDy=0;" edge="1" parent="WIyWlLk6GJQsqaUBKTNV-1" source="aXrmk4FM_Ra0JbeD8-sf-0">
          <mxGeometry relative="1" as="geometry">
            <mxPoint x="139" y="278" as="targetPoint" />
          </mxGeometry>
        </mxCell>
        <mxCell id="aXrmk4FM_Ra0JbeD8-sf-0" value="s1/0" style="ellipse;whiteSpace=wrap;html=1;aspect=fixed;" parent="WIyWlLk6GJQsqaUBKTNV-1" vertex="1">
          <mxGeometry x="70" y="210" width="80" height="80" as="geometry" />
        </mxCell>
        <mxCell id="X8g_dlJJMPmyOJWbWl0t-2" value="1" style="edgeStyle=orthogonalEdgeStyle;rounded=0;orthogonalLoop=1;jettySize=auto;html=1;exitX=1;exitY=0.5;exitDx=0;exitDy=0;entryX=0;entryY=0.5;entryDx=0;entryDy=0;" edge="1" parent="WIyWlLk6GJQsqaUBKTNV-1" source="aXrmk4FM_Ra0JbeD8-sf-1" target="aXrmk4FM_Ra0JbeD8-sf-2">
          <mxGeometry relative="1" as="geometry" />
        </mxCell>
        <mxCell id="X8g_dlJJMPmyOJWbWl0t-8" value="0" style="edgeStyle=orthogonalEdgeStyle;rounded=0;orthogonalLoop=1;jettySize=auto;html=1;exitX=0.5;exitY=0;exitDx=0;exitDy=0;entryX=0.5;entryY=0;entryDx=0;entryDy=0;" edge="1" parent="WIyWlLk6GJQsqaUBKTNV-1" source="aXrmk4FM_Ra0JbeD8-sf-1" target="aXrmk4FM_Ra0JbeD8-sf-0">
          <mxGeometry relative="1" as="geometry" />
        </mxCell>
        <mxCell id="aXrmk4FM_Ra0JbeD8-sf-1" value="s2/0" style="ellipse;whiteSpace=wrap;html=1;aspect=fixed;" parent="WIyWlLk6GJQsqaUBKTNV-1" vertex="1">
          <mxGeometry x="210" y="210" width="80" height="80" as="geometry" />
        </mxCell>
        <mxCell id="X8g_dlJJMPmyOJWbWl0t-3" value="0" style="edgeStyle=orthogonalEdgeStyle;rounded=0;orthogonalLoop=1;jettySize=auto;html=1;entryX=0;entryY=0.5;entryDx=0;entryDy=0;" edge="1" parent="WIyWlLk6GJQsqaUBKTNV-1" source="aXrmk4FM_Ra0JbeD8-sf-2" target="aXrmk4FM_Ra0JbeD8-sf-3">
          <mxGeometry relative="1" as="geometry" />
        </mxCell>
        <mxCell id="X8g_dlJJMPmyOJWbWl0t-10" value="1" style="edgeStyle=orthogonalEdgeStyle;rounded=0;orthogonalLoop=1;jettySize=auto;html=1;exitX=0;exitY=0;exitDx=0;exitDy=0;entryX=1;entryY=0;entryDx=0;entryDy=0;" edge="1" parent="WIyWlLk6GJQsqaUBKTNV-1" source="aXrmk4FM_Ra0JbeD8-sf-2" target="aXrmk4FM_Ra0JbeD8-sf-1">
          <mxGeometry relative="1" as="geometry" />
        </mxCell>
        <mxCell id="aXrmk4FM_Ra0JbeD8-sf-2" value="s3/0" style="ellipse;whiteSpace=wrap;html=1;aspect=fixed;" parent="WIyWlLk6GJQsqaUBKTNV-1" vertex="1">
          <mxGeometry x="340" y="210" width="80" height="80" as="geometry" />
        </mxCell>
        <mxCell id="X8g_dlJJMPmyOJWbWl0t-4" value="1" style="edgeStyle=orthogonalEdgeStyle;rounded=0;orthogonalLoop=1;jettySize=auto;html=1;entryX=0;entryY=0.5;entryDx=0;entryDy=0;" edge="1" parent="WIyWlLk6GJQsqaUBKTNV-1" source="aXrmk4FM_Ra0JbeD8-sf-3" target="X8g_dlJJMPmyOJWbWl0t-0">
          <mxGeometry relative="1" as="geometry" />
        </mxCell>
        <mxCell id="X8g_dlJJMPmyOJWbWl0t-13" value="0" style="edgeStyle=orthogonalEdgeStyle;rounded=0;orthogonalLoop=1;jettySize=auto;html=1;exitX=0.5;exitY=1;exitDx=0;exitDy=0;" edge="1" parent="WIyWlLk6GJQsqaUBKTNV-1" source="aXrmk4FM_Ra0JbeD8-sf-3" target="aXrmk4FM_Ra0JbeD8-sf-0">
          <mxGeometry relative="1" as="geometry">
            <mxPoint x="100" y="400" as="targetPoint" />
            <Array as="points">
              <mxPoint x="510" y="345" />
              <mxPoint x="101" y="345" />
            </Array>
          </mxGeometry>
        </mxCell>
        <mxCell id="aXrmk4FM_Ra0JbeD8-sf-3" value="s4/0" style="ellipse;whiteSpace=wrap;html=1;aspect=fixed;" parent="WIyWlLk6GJQsqaUBKTNV-1" vertex="1">
          <mxGeometry x="470" y="210" width="80" height="80" as="geometry" />
        </mxCell>
        <mxCell id="X8g_dlJJMPmyOJWbWl0t-16" value="1" style="edgeStyle=orthogonalEdgeStyle;rounded=0;orthogonalLoop=1;jettySize=auto;html=1;exitX=0;exitY=0;exitDx=0;exitDy=0;entryX=0.5;entryY=0;entryDx=0;entryDy=0;" edge="1" parent="WIyWlLk6GJQsqaUBKTNV-1" source="X8g_dlJJMPmyOJWbWl0t-0" target="aXrmk4FM_Ra0JbeD8-sf-1">
          <mxGeometry relative="1" as="geometry">
            <mxPoint x="250" y="150" as="targetPoint" />
            <Array as="points">
              <mxPoint x="612" y="150" />
              <mxPoint x="250" y="150" />
            </Array>
          </mxGeometry>
        </mxCell>
        <mxCell id="X8g_dlJJMPmyOJWbWl0t-17" value="0" style="edgeStyle=orthogonalEdgeStyle;rounded=0;orthogonalLoop=1;jettySize=auto;html=1;exitX=0.5;exitY=1;exitDx=0;exitDy=0;entryX=0.5;entryY=1;entryDx=0;entryDy=0;" edge="1" parent="WIyWlLk6GJQsqaUBKTNV-1" source="X8g_dlJJMPmyOJWbWl0t-0" target="aXrmk4FM_Ra0JbeD8-sf-0">
          <mxGeometry relative="1" as="geometry">
            <mxPoint x="640" y="330" as="targetPoint" />
          </mxGeometry>
        </mxCell>
        <mxCell id="X8g_dlJJMPmyOJWbWl0t-0" value="s5/1" style="ellipse;whiteSpace=wrap;html=1;aspect=fixed;" vertex="1" parent="WIyWlLk6GJQsqaUBKTNV-1">
          <mxGeometry x="600" y="210" width="80" height="80" as="geometry" />
        </mxCell>
      </root>
    </mxGraphModel>
  </diagram>
</mxfile>
